<svg id="Layer_1" data-name="Layer 1" xmlns="http://www.w3.org/2000/svg" viewBox="0 0 429.15 48.52"><title>mcnally</title><path d="M65.91,24.85c-.25-4.7-.55-10.35-.5-14.55h-.15c-1.15,4-2.55,8.15-4.25,12.8l-6,16.35h-3.3L46.31,23.4c-1.6-4.75-3-9.1-3.9-13.1h-.1c-.1,4.2-.35,9.85-.65,14.9l-.9,14.45H36.61L39,5.95h5.55l5.75,16.3c1.4,4.15,2.55,7.85,3.4,11.35h.15c.85-3.4,2.05-7.1,3.55-11.35l6-16.3h5.55L71,39.65H66.76Z" transform="translate(-4.67 -2.18)" style="fill:#026e00"/><path d="M95.11,38.75a16.21,16.21,0,0,1-7,1.4c-7.3,0-12.05-5-12.05-12.35s5.1-12.85,13-12.85a14.72,14.72,0,0,1,6.1,1.25l-1,3.4a10.2,10.2,0,0,0-5.1-1.15c-5.55,0-8.55,4.1-8.55,9.15,0,5.6,3.6,9.05,8.4,9.05a12.5,12.5,0,0,0,5.4-1.2Z" transform="translate(-4.67 -2.18)" style="fill:#026e00"/><path d="M100.41,39.65V5.95h4.75L116,23A95.35,95.35,0,0,1,122,34l.1-.05c-.4-4.5-.5-8.6-.5-13.85V5.95h4.1v33.7h-4.4l-10.7-17.1a106.92,106.92,0,0,1-6.3-11.25l-.15,0c.25,4.25.35,8.3.35,13.9v14.4Z" transform="translate(-4.67 -2.18)" style="fill:#026e00"/><path d="M146.56,39.65l-.35-3.05h-.15a9,9,0,0,1-7.4,3.6c-4.9,0-7.4-3.45-7.4-7,0-5.85,5.2-9.05,14.55-9v-.5c0-2-.55-5.6-5.5-5.6A12.06,12.06,0,0,0,134,20l-1-2.9a15,15,0,0,1,8-2.15c7.4,0,9.2,5.05,9.2,9.9v9.05a34.1,34.1,0,0,0,.4,5.8Zm-.65-12.35c-4.8-.1-10.25.75-10.25,5.45a3.89,3.89,0,0,0,4.15,4.2,6,6,0,0,0,5.85-4.05,4.59,4.59,0,0,0,.25-1.4Z" transform="translate(-4.67 -2.18)" style="fill:#026e00"/><path d="M157.26,4.15h4.4v35.5h-4.4Z" transform="translate(-4.67 -2.18)" style="fill:#026e00"/><path d="M169.05,4.15h4.4v35.5h-4.4Z" transform="translate(-4.67 -2.18)" style="fill:#026e00"/><path d="M182.45,15.45l5.3,14.3c.55,1.6,1.15,3.5,1.55,5h.1c.45-1.45,1-3.3,1.55-5.05l4.8-14.2h4.65l-6.6,17.25c-3.15,8.3-5.3,12.55-8.3,15.15a11.92,11.92,0,0,1-5.4,2.85L179,47a11.64,11.64,0,0,0,3.85-2.15,13.33,13.33,0,0,0,3.7-4.9,3.15,3.15,0,0,0,.35-1,3.83,3.83,0,0,0-.3-1.15l-9-22.3Z" transform="translate(-4.67 -2.18)" style="fill:#026e00"/><path d="M239.18,23.36q0,16.29-16.2,16.29h-9.7V7.6H223q8.12,0,12.16,3.91T239.18,23.36Zm-2.49,0a23.12,23.12,0,0,0-.63-5.65,9.73,9.73,0,0,0-2.21-4.23,9.93,9.93,0,0,0-4.23-2.65,21,21,0,0,0-6.69-.91h-7.29V37.31h7.29a20.22,20.22,0,0,0,6.67-.94,9.88,9.88,0,0,0,4.23-2.74A10.31,10.31,0,0,0,236,29.25,24.37,24.37,0,0,0,236.69,23.36Z" transform="translate(-4.67 -2.18)" style="fill:#026e00"/><path d="M254.88,40.24a11.1,11.1,0,0,1-4.31-.81,9.2,9.2,0,0,1-3.33-2.34,10.68,10.68,0,0,1-2.15-3.76,15.62,15.62,0,0,1-.76-5.07,15.75,15.75,0,0,1,.73-5,10.73,10.73,0,0,1,2.08-3.75,9.13,9.13,0,0,1,3.19-2.36,10,10,0,0,1,4.1-.82,10.35,10.35,0,0,1,4.19.82,8.79,8.79,0,0,1,3.19,2.36,10.63,10.63,0,0,1,2,3.75,16.46,16.46,0,0,1,.7,5v.53H246.68a13.71,13.71,0,0,0,.85,4,8.59,8.59,0,0,0,1.76,2.83,7,7,0,0,0,2.5,1.68,8.4,8.4,0,0,0,3.09.56,10.09,10.09,0,0,0,2.34-.28,7.71,7.71,0,0,0,2.12-.83,5.59,5.59,0,0,0,1.6-1.38,3.62,3.62,0,0,0,.76-1.87H264a7.87,7.87,0,0,1-3.16,5,8.8,8.8,0,0,1-2.72,1.3A11.68,11.68,0,0,1,254.88,40.24Zm7.29-13.77a9.69,9.69,0,0,0-2.65-5.83,7.16,7.16,0,0,0-5.08-1.93,8.1,8.1,0,0,0-2.78.47,6.52,6.52,0,0,0-2.3,1.44,8.07,8.07,0,0,0-1.7,2.43,12.33,12.33,0,0,0-1,3.43Z" transform="translate(-4.67 -2.18)" style="fill:#026e00"/><path d="M287.75,16.95l-8.61,22.71H277l-8.61-22.71h2.37l7.29,19.48,7.32-19.48Z" transform="translate(-4.67 -2.18)" style="fill:#026e00"/><path d="M302.17,40.24a11.1,11.1,0,0,1-4.31-.81,9.2,9.2,0,0,1-3.33-2.34,10.68,10.68,0,0,1-2.15-3.76,15.62,15.62,0,0,1-.76-5.07,15.75,15.75,0,0,1,.73-5,10.73,10.73,0,0,1,2.08-3.75,9.13,9.13,0,0,1,3.19-2.36,10,10,0,0,1,4.1-.82,10.35,10.35,0,0,1,4.19.82,8.79,8.79,0,0,1,3.19,2.36,10.63,10.63,0,0,1,2,3.75,16.46,16.46,0,0,1,.7,5v.53H294a13.71,13.71,0,0,0,.85,4,8.59,8.59,0,0,0,1.76,2.83,7,7,0,0,0,2.5,1.68,8.4,8.4,0,0,0,3.09.56,10.09,10.09,0,0,0,2.34-.28,7.71,7.71,0,0,0,2.12-.83,5.59,5.59,0,0,0,1.6-1.38,3.62,3.62,0,0,0,.76-1.87h2.31a7.87,7.87,0,0,1-3.16,5,8.8,8.8,0,0,1-2.72,1.3A11.68,11.68,0,0,1,302.17,40.24Zm7.29-13.77a9.69,9.69,0,0,0-2.65-5.83,7.16,7.16,0,0,0-5.08-1.93,8.1,8.1,0,0,0-2.78.47,6.52,6.52,0,0,0-2.3,1.44,8.07,8.07,0,0,0-1.7,2.43,12.33,12.33,0,0,0-1,3.43Z" transform="translate(-4.67 -2.18)" style="fill:#026e00"/><path d="M320.54,39.65h-2.34V7.57h2.34Z" transform="translate(-4.67 -2.18)" style="fill:#026e00"/><path d="M336.83,16.36a10.51,10.51,0,0,1,4.19.81,8.65,8.65,0,0,1,3.19,2.34,10.63,10.63,0,0,1,2,3.75,16.46,16.46,0,0,1,.7,5,16.5,16.5,0,0,1-.72,5.07,10.79,10.79,0,0,1-2,3.76A8.64,8.64,0,0,1,341,39.43a11.2,11.2,0,0,1-8.31,0,8.53,8.53,0,0,1-3.18-2.33,11,11,0,0,1-2.05-3.76,16.29,16.29,0,0,1-.73-5.1,16.26,16.26,0,0,1,.72-5,10.65,10.65,0,0,1,2-3.74,8.73,8.73,0,0,1,3.19-2.33A10.43,10.43,0,0,1,336.83,16.36Zm0,21.53a8,8,0,0,0,3.15-.6,6.45,6.45,0,0,0,2.45-1.82,8.69,8.69,0,0,0,1.6-3,13.94,13.94,0,0,0,.57-4.2,13.83,13.83,0,0,0-.57-4.17,8.38,8.38,0,0,0-1.6-3A6.58,6.58,0,0,0,340,19.3a8.63,8.63,0,0,0-6.33,0,6.58,6.58,0,0,0-2.45,1.79,8.21,8.21,0,0,0-1.58,3,14.17,14.17,0,0,0-.56,4.17,14.28,14.28,0,0,0,.56,4.2,8.51,8.51,0,0,0,1.58,3,6.45,6.45,0,0,0,2.45,1.82A8.09,8.09,0,0,0,336.83,37.89Z" transform="translate(-4.67 -2.18)" style="fill:#026e00"/><path d="M355.28,20.32a13.41,13.41,0,0,1,2.15-2.14,9.49,9.49,0,0,1,2-1.2,7.16,7.16,0,0,1,1.86-.53,13.49,13.49,0,0,1,1.74-.12,8,8,0,0,1,3.75.85,7.79,7.79,0,0,1,2.75,2.39,11.27,11.27,0,0,1,1.7,3.71,18.4,18.4,0,0,1,.59,4.8,17.08,17.08,0,0,1-.69,5,12,12,0,0,1-1.9,3.82,8.65,8.65,0,0,1-2.87,2.45,7.64,7.64,0,0,1-3.59.86q-.82,0-1.7-.07a8.47,8.47,0,0,1-1.82-.37,9.73,9.73,0,0,1-1.93-.86,11.68,11.68,0,0,1-2.05-1.54V48h-2.34V16.95h2.34Zm0,14.24a9.75,9.75,0,0,0,7.27,3.34,6.35,6.35,0,0,0,2.86-.63,6,6,0,0,0,2.18-1.86A9.15,9.15,0,0,0,369,32.34a16.32,16.32,0,0,0,.5-4.26q0-4.63-1.77-7a5.87,5.87,0,0,0-5-2.37q-4.22,0-7.44,4.54Z" transform="translate(-4.67 -2.18)" style="fill:#026e00"/><path d="M387.07,40.24a11.1,11.1,0,0,1-4.31-.81,9.2,9.2,0,0,1-3.33-2.34,10.68,10.68,0,0,1-2.15-3.76,15.62,15.62,0,0,1-.76-5.07,15.75,15.75,0,0,1,.73-5,10.73,10.73,0,0,1,2.08-3.75,9.13,9.13,0,0,1,3.19-2.36,10,10,0,0,1,4.1-.82,10.35,10.35,0,0,1,4.19.82A8.79,8.79,0,0,1,394,19.54a10.63,10.63,0,0,1,2,3.75,16.46,16.46,0,0,1,.7,5v.53H378.87a13.71,13.71,0,0,0,.85,4,8.59,8.59,0,0,0,1.76,2.83,7,7,0,0,0,2.5,1.68,8.4,8.4,0,0,0,3.09.56,10.09,10.09,0,0,0,2.34-.28,7.71,7.71,0,0,0,2.12-.83,5.59,5.59,0,0,0,1.6-1.38,3.62,3.62,0,0,0,.76-1.87h2.31a7.87,7.87,0,0,1-3.16,5,8.8,8.8,0,0,1-2.72,1.3A11.68,11.68,0,0,1,387.07,40.24Zm7.29-13.77a9.69,9.69,0,0,0-2.65-5.83,7.16,7.16,0,0,0-5.08-1.93,8.1,8.1,0,0,0-2.78.47,6.52,6.52,0,0,0-2.3,1.44,8.07,8.07,0,0,0-1.7,2.43,12.33,12.33,0,0,0-1,3.43Z" transform="translate(-4.67 -2.18)" style="fill:#026e00"/><path d="M413.29,18.76a3.94,3.94,0,0,0-.7-.06h-.85a4.78,4.78,0,0,0-1.93.41A8.43,8.43,0,0,0,408,20.18a11.39,11.39,0,0,0-1.58,1.49,11.85,11.85,0,0,0-1.26,1.71V39.65h-2.34V16.95h2.34v3.13a12.32,12.32,0,0,1,2-1.9,10.07,10.07,0,0,1,1.9-1.14,7,7,0,0,1,1.77-.54,10.19,10.19,0,0,1,1.55-.13h.44l.47,0Z" transform="translate(-4.67 -2.18)" style="fill:#026e00"/><path d="M425.3,40.24q-8.35,0-9.11-6.71h2.37a4.46,4.46,0,0,0,1.89,3.21,8.29,8.29,0,0,0,4.82,1.16,9.9,9.9,0,0,0,2.72-.34,6.1,6.1,0,0,0,1.95-.91,3.65,3.65,0,0,0,1.16-1.36,3.87,3.87,0,0,0,.38-1.7,3.58,3.58,0,0,0-.31-1.55,3,3,0,0,0-1.11-1.17,10.19,10.19,0,0,0-2.2-1q-1.39-.48-3.56-1-1.85-.47-3.28-1a8.89,8.89,0,0,1-2.42-1.23,4.76,4.76,0,0,1-1.48-1.77,6,6,0,0,1-.5-2.59,5.22,5.22,0,0,1,.57-2.45,5.4,5.4,0,0,1,1.6-1.86,7.55,7.55,0,0,1,2.49-1.17,12,12,0,0,1,3.25-.41,11.32,11.32,0,0,1,6.14,1.36A5.29,5.29,0,0,1,433,22h-2.37a3.24,3.24,0,0,0-1.63-2.5,8.46,8.46,0,0,0-4.15-.81,11.24,11.24,0,0,0-2.37.23,6.32,6.32,0,0,0-1.86.69,3.52,3.52,0,0,0-1.22,1.14,2.85,2.85,0,0,0-.44,1.57,3.23,3.23,0,0,0,.18,1,2.48,2.48,0,0,0,.89,1.08,9.11,9.11,0,0,0,2.15,1.13,31.51,31.51,0,0,0,3.93,1.19,33.24,33.24,0,0,1,3.41,1,9,9,0,0,1,2.4,1.29,4.82,4.82,0,0,1,1.42,1.74,5.46,5.46,0,0,1,.47,2.34,6.6,6.6,0,0,1-.6,2.8,6.48,6.48,0,0,1-1.7,2.24,8.14,8.14,0,0,1-2.68,1.48A10.89,10.89,0,0,1,425.3,40.24Z" transform="translate(-4.67 -2.18)" style="fill:#026e00"/><path d="M12.44,41.38l-5.77,0L21.18,22.8h0L6.67,4.18l5.7,0a.92.92,0,0,1,.75.39L26,22.8h0L13.15,41A.87.87,0,0,1,12.44,41.38Z" transform="translate(-4.67 -2.18)" style="fill:#026e00;stroke:#026e00;stroke-linecap:round;stroke-linejoin:round;stroke-width:4px"/></svg>