<svg id="Layer_4" data-name="Layer 4" xmlns="http://www.w3.org/2000/svg" xmlns:xlink="http://www.w3.org/1999/xlink" viewBox="0 0 632.12 82.78"><defs><style>.cls-1{fill:none;}.cls-2{fill:#026200;}.cls-3{fill:#bf360c;}.cls-10,.cls-3,.cls-4,.cls-5,.cls-9{opacity:0.2;isolation:isolate;}.cls-4{fill:#263238;}.cls-5{fill:#fff;}.cls-6{fill:url(#radial-gradient);}.cls-7{fill:url(#radial-gradient-2);}.cls-8{fill:#026e00;}.cls-9{fill:#1a237e;}.cls-10{fill:#3e2723;}.cls-11{fill:url(#radial-gradient-3);}</style><radialGradient id="radial-gradient" cx="113.54" cy="201.18" r="28.63" gradientTransform="matrix(1, 0, 0, -1, -75.2, 267.39)" gradientUnits="userSpaceOnUse"><stop offset="0" stop-color="#bf360c" stop-opacity="0.2"/><stop offset="1" stop-color="#bf360c" stop-opacity="0.02"/></radialGradient><radialGradient id="radial-gradient-2" cx="113.46" cy="201" r="28.86" gradientTransform="matrix(1, 0, 0, -1, -75.2, 267.39)" gradientUnits="userSpaceOnUse"><stop offset="0" stop-color="#263238" stop-opacity="0.2"/><stop offset="1" stop-color="#263238" stop-opacity="0.02"/></radialGradient><radialGradient id="radial-gradient-3" cx="74.57" cy="266.74" r="86.89" gradientTransform="matrix(1, 0, 0, -1, 0, 450)" gradientUnits="userSpaceOnUse"><stop offset="0" stop-color="#fff" stop-opacity="0.1"/><stop offset="1" stop-color="#fff" stop-opacity="0"/></radialGradient></defs><title>Mcnally_logo</title><g id="_Grupo_" data-name="&lt;Grupo&gt;"><g id="_Grupo_2" data-name="&lt;Grupo&gt;"><path class="cls-1" d="M125.9,220.12l-21.69-37.51h-29L99.15,224,75.2,265.39h29l21.69-37.51A7.74,7.74,0,0,0,125.9,220.12Z" transform="translate(-75.2 -182.61)"/><polygon id="_Trazado_" data-name="&lt;Trazado&gt;" class="cls-2" points="38.25 66.14 31.38 54.25 14.87 82.78 29 82.78 38.44 66.46 38.25 66.14"/><path class="cls-1" d="M125.9,220.12l-21.69-37.51h-29L99.15,224,75.2,265.39h29l21.69-37.51A7.74,7.74,0,0,0,125.9,220.12Z" transform="translate(-75.2 -182.61)"/><polygon class="cls-2" points="23.94 41.39 31.38 54.25 14.87 82.78 0 82.78 23.94 41.39"/><path class="cls-1" d="M125.9,220.12l-21.69-37.51h-29L99.15,224,75.2,265.39h29l21.69-37.51A7.74,7.74,0,0,0,125.9,220.12Z" transform="translate(-75.2 -182.61)"/><polygon class="cls-3" points="29 82.13 15.25 82.13 14.87 82.78 29 82.78 38.44 66.46 38.25 66.14 29 82.13"/><path class="cls-1" d="M125.9,220.12l-21.69-37.51h-29L99.15,224,75.2,265.39h29l21.69-37.51A7.74,7.74,0,0,0,125.9,220.12Z" transform="translate(-75.2 -182.61)"/><polygon class="cls-4" points="0.38 82.13 0 82.78 14.87 82.78 15.25 82.13 0.38 82.13"/><path class="cls-1" d="M125.9,220.12l-21.69-37.51h-29L99.15,224,75.2,265.39h29l21.69-37.51A7.74,7.74,0,0,0,125.9,220.12Z" transform="translate(-75.2 -182.61)"/><polygon class="cls-5" points="0 82.78 0.38 82.78 24.13 41.71 23.94 41.39 0 82.78"/><path class="cls-1" d="M125.9,220.12l-21.69-37.51h-29L99.15,224,75.2,265.39h29l21.69-37.51A7.74,7.74,0,0,0,125.9,220.12Z" transform="translate(-75.2 -182.61)"/><polygon id="_Trazado_2" data-name="&lt;Trazado&gt;" class="cls-6" points="38.44 66.46 38.44 66.46 31.38 54.25 29.64 57.24 38.44 66.46"/><path class="cls-1" d="M125.9,220.12l-21.69-37.51h-29L99.15,224,75.2,265.39h29l21.69-37.51A7.74,7.74,0,0,0,125.9,220.12Z" transform="translate(-75.2 -182.61)"/><polygon id="_Trazado_3" data-name="&lt;Trazado&gt;" class="cls-7" points="29.64 57.24 31.38 54.25 23.94 41.39 20.39 47.53 29.64 57.24"/><path class="cls-1" d="M125.9,220.12l-21.69-37.51h-29L99.15,224,75.2,265.39h29l21.69-37.51A7.74,7.74,0,0,0,125.9,220.12Z" transform="translate(-75.2 -182.61)"/><g id="_Grupo_3" data-name="&lt;Grupo&gt;"><g id="_Grupo_4" data-name="&lt;Grupo&gt;"><polygon id="_Trazado_4" data-name="&lt;Trazado&gt;" class="cls-8" points="14.87 0 0 0 38.44 66.46 45.87 53.61 45.88 53.6 14.87 0"/></g></g><path class="cls-1" d="M125.9,220.12l-21.69-37.51h-29L99.15,224,75.2,265.39h29l21.69-37.51A7.74,7.74,0,0,0,125.9,220.12Z" transform="translate(-75.2 -182.61)"/><path class="cls-8" d="M125.9,227.88a7.74,7.74,0,0,0,0-7.76l-21.69-37.51H90.08l31,53.6Z" transform="translate(-75.2 -182.61)"/><path class="cls-1" d="M125.9,220.12l-21.69-37.51h-29L99.15,224,75.2,265.39h29l21.69-37.51A7.74,7.74,0,0,0,125.9,220.12Z" transform="translate(-75.2 -182.61)"/><polygon class="cls-9" points="45.88 53.6 45.69 53.28 38.44 65.82 0.38 0 0 0 38.44 66.46 45.87 53.61 45.88 53.6"/><path class="cls-1" d="M125.9,220.12l-21.69-37.51h-29L99.15,224,75.2,265.39h29l21.69-37.51A7.74,7.74,0,0,0,125.9,220.12Z" transform="translate(-75.2 -182.61)"/><path class="cls-5" d="M104.21,183.26l21.69,37.51a7.73,7.73,0,0,1,1,3.56,7.74,7.74,0,0,0-1-4.2l-21.69-37.51h-29l0.38,0.65h28.63Z" transform="translate(-75.2 -182.61)"/><path class="cls-1" d="M125.9,220.12l-21.69-37.51h-29L99.15,224,75.2,265.39h29l21.69-37.51A7.74,7.74,0,0,0,125.9,220.12Z" transform="translate(-75.2 -182.61)"/><path id="_Trazado_5" data-name="&lt;Trazado&gt;" class="cls-10" d="M121.08,236.21l4.82-8.33a7.74,7.74,0,0,0,1-4.2,7.73,7.73,0,0,1-1,3.56l-5,8.66Z" transform="translate(-75.2 -182.61)"/><path class="cls-1" d="M125.9,220.12l-21.69-37.51h-29L99.15,224,75.2,265.39h29l21.69-37.51A7.74,7.74,0,0,0,125.9,220.12Z" transform="translate(-75.2 -182.61)"/><path id="_Trazado_6" data-name="&lt;Trazado&gt;" class="cls-11" d="M125.92,220.12l-21.69-37.51h-29L99.16,224,75.22,265.39h29l21.69-37.51A7.74,7.74,0,0,0,125.92,220.12Z" transform="translate(-75.2 -182.61)"/></g></g><path class="cls-8" d="M165.42,241.46l-11.17-36.4H154q0.6,11.11.6,14.82v21.58h-8.79v-46.4h13.39l11,35.48h0.19L182,195.06h13.39v46.4h-9.17v-22q0-1.55,0-3.59t0.43-10.79H186.4l-12,36.34h-9Z" transform="translate(-75.2 -182.61)"/><path class="cls-8" d="M217.46,242.09q-16.57,0-16.57-18.19,0-9,4.51-13.82t12.92-4.78a24.63,24.63,0,0,1,11,2.41l-2.86,7.49q-2.29-.92-4.25-1.51a13.7,13.7,0,0,0-3.94-.59q-7.55,0-7.55,10.73,0,10.41,7.55,10.41a17.23,17.23,0,0,0,5.17-.75,18.69,18.69,0,0,0,4.76-2.33v8.28a15.59,15.59,0,0,1-4.75,2.06A26.68,26.68,0,0,1,217.46,242.09Z" transform="translate(-75.2 -182.61)"/><path class="cls-8" d="M275.15,241.46h-12.5l-20.19-35.1h-0.29q0.6,9.3.6,13.27v21.84H234v-46.4h12.41l20.15,34.75h0.22q-0.48-9-.48-12.79v-22h8.85v46.4Z" transform="translate(-75.2 -182.61)"/><path class="cls-8" d="M305.35,241.46l-1.87-4.82h-0.25a14.29,14.29,0,0,1-5,4.27,16.25,16.25,0,0,1-6.74,1.19,10.91,10.91,0,0,1-8-2.92q-2.94-2.92-2.94-8.32,0-5.65,4-8.33t11.92-3l6.16-.19v-1.56q0-5.4-5.52-5.4A25.16,25.16,0,0,0,287,215l-3.21-6.54a28.85,28.85,0,0,1,13.58-3.21q7.14,0,10.95,3.11t3.81,9.46v23.65h-6.76ZM302.49,225l-3.75.13q-4.22.13-6.28,1.52a4.78,4.78,0,0,0-2.06,4.25q0,4.09,4.7,4.09a7.44,7.44,0,0,0,5.38-1.94,6.8,6.8,0,0,0,2-5.14V225Z" transform="translate(-75.2 -182.61)"/><path class="cls-8" d="M328.51,241.46h-9.68V192.07h9.68v49.38Z" transform="translate(-75.2 -182.61)"/><path class="cls-8" d="M345.09,241.46h-9.68V192.07h9.68v49.38Z" transform="translate(-75.2 -182.61)"/><path class="cls-8" d="M346.92,206h10.6l6.7,20a27.73,27.73,0,0,1,1.17,6.16h0.19a27.19,27.19,0,0,1,1.36-6.16l6.57-20H383.9l-15,40a17.33,17.33,0,0,1-5.89,8.32,14.86,14.86,0,0,1-8.93,2.76,22.48,22.48,0,0,1-4.92-.54v-7.68a16.53,16.53,0,0,0,3.81.41,6.88,6.88,0,0,0,4.49-1.57,10.19,10.19,0,0,0,3-4.75l0.57-1.75Z" transform="translate(-75.2 -182.61)"/><path class="cls-8" d="M440.55,217.61q0,11.49-6.24,17.57t-17.95,6.08H403.52v-46.4h14.22q10.82,0,16.82,6T440.55,217.61Zm-5.71.19q0-9.08-4.55-13.68t-13.54-4.6h-7.84v37.07h6.57q9.65,0,14.5-4.74T434.84,217.8Z" transform="translate(-75.2 -182.61)"/><path class="cls-8" d="M461.55,241.89q-7.71,0-12.17-4.7t-4.46-13q0-8.41,4.14-13.36a13.76,13.76,0,0,1,11.12-5,13.12,13.12,0,0,1,10.35,4.3q3.81,4.3,3.81,11.35v3.33h-24q0.16,6.13,3.09,9.3t8.27,3.17a28,28,0,0,0,11.11-2.35v4.7a27.88,27.88,0,0,1-5.28,1.73A29.73,29.73,0,0,1,461.55,241.89Zm-1.43-31.64a8.6,8.6,0,0,0-6.68,2.73,12.58,12.58,0,0,0-2.94,7.55h18.19q0-5-2.22-7.63A7.82,7.82,0,0,0,460.12,210.25Z" transform="translate(-75.2 -182.61)"/><path class="cls-8" d="M487.69,241.26l-13.2-34.79h5.65l7.49,20.63a97.82,97.82,0,0,1,3,9.39h0.25a70.82,70.82,0,0,1,2.21-7q1.86-5.28,8.33-23.06h5.65l-13.2,34.79h-6.16Z" transform="translate(-75.2 -182.61)"/><path class="cls-8" d="M524.08,241.89q-7.71,0-12.17-4.7t-4.46-13q0-8.41,4.14-13.36a13.76,13.76,0,0,1,11.12-5,13.12,13.12,0,0,1,10.35,4.3q3.81,4.3,3.81,11.35v3.33h-24q0.16,6.13,3.09,9.3t8.27,3.17a28,28,0,0,0,11.11-2.35v4.7a27.88,27.88,0,0,1-5.28,1.73A29.73,29.73,0,0,1,524.08,241.89Zm-1.43-31.64A8.6,8.6,0,0,0,516,213a12.58,12.58,0,0,0-2.94,7.55h18.19q0-5-2.22-7.63A7.82,7.82,0,0,0,522.66,210.25Z" transform="translate(-75.2 -182.61)"/><path class="cls-8" d="M547.87,241.26h-5.27V191.87h5.27v49.38Z" transform="translate(-75.2 -182.61)"/><path class="cls-8" d="M585.82,223.83q0,8.5-4.29,13.28t-11.84,4.78a15.69,15.69,0,0,1-8.28-2.19,14.45,14.45,0,0,1-5.59-6.29,21.89,21.89,0,0,1-2-9.58q0-8.51,4.25-13.25t11.81-4.75q7.3,0,11.6,4.86T585.82,223.83Zm-26.5,0q0,6.67,2.67,10.16t7.84,3.49q5.17,0,7.86-3.47t2.68-10.17q0-6.63-2.68-10.08t-7.92-3.44q-5.17,0-7.81,3.4T559.32,223.83Z" transform="translate(-75.2 -182.61)"/><path class="cls-8" d="M608,241.89a15.06,15.06,0,0,1-6.21-1.25,11.67,11.67,0,0,1-4.71-3.86h-0.38a46.65,46.65,0,0,1,.38,5.78v14.31h-5.27v-50.4h4.29l0.73,4.76h0.25a12.23,12.23,0,0,1,4.73-4.13,14.37,14.37,0,0,1,6.19-1.27q6.92,0,10.68,4.73t3.76,13.27q0,8.57-3.82,13.31T608,241.89Zm-0.76-31.58q-5.33,0-7.71,3t-2.45,9.39v1.17q0,7.33,2.45,10.49t7.84,3.16a8.15,8.15,0,0,0,7.06-3.65q2.55-3.65,2.55-10.06t-2.55-10A8.41,8.41,0,0,0,607.23,210.31Z" transform="translate(-75.2 -182.61)"/><path class="cls-8" d="M643.08,241.89q-7.71,0-12.17-4.7t-4.46-13q0-8.41,4.14-13.36a13.76,13.76,0,0,1,11.12-5,13.12,13.12,0,0,1,10.35,4.3q3.81,4.3,3.81,11.35v3.33h-24q0.16,6.13,3.09,9.3t8.27,3.17a28,28,0,0,0,11.11-2.35v4.7a27.88,27.88,0,0,1-5.29,1.73A29.73,29.73,0,0,1,643.08,241.89Zm-1.43-31.64A8.6,8.6,0,0,0,635,213a12.58,12.58,0,0,0-2.94,7.55h18.19q0-5-2.22-7.63A7.82,7.82,0,0,0,641.66,210.25Z" transform="translate(-75.2 -182.61)"/><path class="cls-8" d="M677.48,205.84a20.63,20.63,0,0,1,4.16.38l-0.73,4.89a18,18,0,0,0-3.81-.48,9.27,9.27,0,0,0-7.22,3.43,12.5,12.5,0,0,0-3,8.54v18.66h-5.27V206.47H666l0.6,6.44h0.25a15.28,15.28,0,0,1,4.67-5.24A10.5,10.5,0,0,1,677.48,205.84Z" transform="translate(-75.2 -182.61)"/><path class="cls-8" d="M707.33,231.77a8.71,8.71,0,0,1-3.62,7.49q-3.62,2.64-10.16,2.63-6.92,0-10.79-2.19v-4.89a26.07,26.07,0,0,0,5.38,2,22.43,22.43,0,0,0,5.54.73,12.56,12.56,0,0,0,6.35-1.32,4.53,4.53,0,0,0,.46-7.49,27.74,27.74,0,0,0-6.87-3.41,37.2,37.2,0,0,1-6.9-3.16,9.41,9.41,0,0,1-3-3.06,8,8,0,0,1-1-4.09,7.8,7.8,0,0,1,3.46-6.71q3.46-2.46,9.49-2.46a27.77,27.77,0,0,1,11,2.29l-1.87,4.29a25.19,25.19,0,0,0-9.49-2.16,10.92,10.92,0,0,0-5.65,1.17,3.63,3.63,0,0,0-1.9,3.24,3.94,3.94,0,0,0,.71,2.38,7,7,0,0,0,2.3,1.87,51.28,51.28,0,0,0,6.09,2.57q6.19,2.25,8.36,4.54A8,8,0,0,1,707.33,231.77Z" transform="translate(-75.2 -182.61)"/></svg>