<svg id="Layer_4" data-name="Layer 4" xmlns="http://www.w3.org/2000/svg" xmlns:xlink="http://www.w3.org/1999/xlink" viewBox="0 0 471.23 124.82"><defs><style>.cls-1{fill:none;}.cls-2{fill:#026200;}.cls-3{fill:#bf360c;}.cls-10,.cls-3,.cls-4,.cls-5,.cls-9{opacity:0.2;isolation:isolate;}.cls-4{fill:#263238;}.cls-5{fill:#fff;}.cls-6{fill:url(#radial-gradient);}.cls-7{fill:url(#radial-gradient-2);}.cls-8{fill:#026e00;}.cls-9{fill:#1a237e;}.cls-10{fill:#3e2723;}.cls-11{fill:url(#radial-gradient-3);}</style><radialGradient id="radial-gradient" cx="323.83" cy="335.33" r="42.84" gradientTransform="matrix(1, 0, 0, -1, -266.44, 434.42)" gradientUnits="userSpaceOnUse"><stop offset="0" stop-color="#bf360c" stop-opacity="0.2"/><stop offset="1" stop-color="#bf360c" stop-opacity="0.02"/></radialGradient><radialGradient id="radial-gradient-2" cx="323.71" cy="335.06" r="43.19" gradientTransform="matrix(1, 0, 0, -1, -266.44, 434.42)" gradientUnits="userSpaceOnUse"><stop offset="0" stop-color="#263238" stop-opacity="0.2"/><stop offset="1" stop-color="#263238" stop-opacity="0.02"/></radialGradient><radialGradient id="radial-gradient-3" cx="265.48" cy="432.97" r="130.04" gradientTransform="matrix(1, 0, 0, -1, 0, 450)" gradientUnits="userSpaceOnUse"><stop offset="0" stop-color="#fff" stop-opacity="0.1"/><stop offset="1" stop-color="#fff" stop-opacity="0"/></radialGradient></defs><title>mcnally_logo2</title><g id="_Grupo_" data-name="&lt;Grupo&gt;"><g id="_Grupo_2" data-name="&lt;Grupo&gt;"><path class="cls-1" d="M342.33,71.72L309.86,15.58H266.45l35.83,61.94-35.83,61.94h43.41l32.46-56.14A11.58,11.58,0,0,0,342.33,71.72Z" transform="translate(-266.44 -15.58)"/><path class="cls-1" d="M342.33,71.72L309.86,15.58H266.45l35.83,61.94-35.83,61.94h43.41l32.46-56.14A11.58,11.58,0,0,0,342.33,71.72Z" transform="translate(-266.44 -15.58)"/><polygon class="cls-2" points="57.26 98.98 46.97 81.19 35.84 61.95 0.01 123.89 22.27 123.89 43.42 123.89 57.54 99.47 57.26 98.98"/><path class="cls-1" d="M342.33,71.72L309.86,15.58H266.45l35.83,61.94-35.83,61.94h43.41l32.46-56.14A11.58,11.58,0,0,0,342.33,71.72Z" transform="translate(-266.44 -15.58)"/><polygon class="cls-3" points="43.42 122.92 22.83 122.92 22.27 123.89 43.42 123.89 57.54 99.47 57.26 98.98 43.42 122.92"/><path class="cls-1" d="M342.33,71.72L309.86,15.58H266.45l35.83,61.94-35.83,61.94h43.41l32.46-56.14A11.58,11.58,0,0,0,342.33,71.72Z" transform="translate(-266.44 -15.58)"/><polygon class="cls-4" points="0.57 122.92 0.01 123.89 22.27 123.89 22.83 122.92 0.57 122.92"/><path class="cls-1" d="M342.33,71.72L309.86,15.58H266.45l35.83,61.94-35.83,61.94h43.41l32.46-56.14A11.58,11.58,0,0,0,342.33,71.72Z" transform="translate(-266.44 -15.58)"/><polygon class="cls-5" points="0.01 123.89 0.57 123.89 36.12 62.43 35.84 61.95 0.01 123.89"/><path class="cls-1" d="M342.33,71.72L309.86,15.58H266.45l35.83,61.94-35.83,61.94h43.41l32.46-56.14A11.58,11.58,0,0,0,342.33,71.72Z" transform="translate(-266.44 -15.58)"/><polygon id="_Trazado_" data-name="&lt;Trazado&gt;" class="cls-6" points="57.54 99.47 57.54 99.47 46.97 81.19 44.38 85.67 57.54 99.47"/><path class="cls-1" d="M342.33,71.72L309.86,15.58H266.45l35.83,61.94-35.83,61.94h43.41l32.46-56.14A11.58,11.58,0,0,0,342.33,71.72Z" transform="translate(-266.44 -15.58)"/><polygon id="_Trazado_2" data-name="&lt;Trazado&gt;" class="cls-7" points="44.38 85.67 46.97 81.19 35.84 61.95 30.53 71.14 44.38 85.67"/><path class="cls-1" d="M342.33,71.72L309.86,15.58H266.45l35.83,61.94-35.83,61.94h43.41l32.46-56.14A11.58,11.58,0,0,0,342.33,71.72Z" transform="translate(-266.44 -15.58)"/><path class="cls-1" d="M342.33,71.72L309.86,15.58H266.45l35.83,61.94-35.83,61.94h43.41l32.46-56.14A11.58,11.58,0,0,0,342.33,71.72Z" transform="translate(-266.44 -15.58)"/><path class="cls-8" d="M342.33,71.72L309.86,15.58H266.45L324,115l11.12-19.23v0l7.21-12.47A11.58,11.58,0,0,0,342.33,71.72Z" transform="translate(-266.44 -15.58)"/><path class="cls-1" d="M342.33,71.72L309.86,15.58H266.45l35.83,61.94-35.83,61.94h43.41l32.46-56.14A11.58,11.58,0,0,0,342.33,71.72Z" transform="translate(-266.44 -15.58)"/><polygon class="cls-9" points="68.67 80.22 68.39 79.74 57.54 98.5 0.57 0 0.01 0 57.54 99.47 68.66 80.24 68.67 80.22"/><path class="cls-1" d="M342.33,71.72L309.86,15.58H266.45l35.83,61.94-35.83,61.94h43.41l32.46-56.14A11.58,11.58,0,0,0,342.33,71.72Z" transform="translate(-266.44 -15.58)"/><path class="cls-5" d="M309.86,16.55l32.46,56.14A11.56,11.56,0,0,1,343.86,78a11.59,11.59,0,0,0-1.53-6.29L309.86,15.58H266.45l0.56,1h42.85Z" transform="translate(-266.44 -15.58)"/><path class="cls-1" d="M342.33,71.72L309.86,15.58H266.45l35.83,61.94-35.83,61.94h43.41l32.46-56.14A11.58,11.58,0,0,0,342.33,71.72Z" transform="translate(-266.44 -15.58)"/><path id="_Trazado_3" data-name="&lt;Trazado&gt;" class="cls-10" d="M335.12,95.8l7.21-12.47A11.59,11.59,0,0,0,343.86,77a11.56,11.56,0,0,1-1.53,5.32l-7.49,13Z" transform="translate(-266.44 -15.58)"/><path class="cls-1" d="M342.33,71.72L309.86,15.58H266.45l35.83,61.94-35.83,61.94h43.41l32.46-56.14A11.58,11.58,0,0,0,342.33,71.72Z" transform="translate(-266.44 -15.58)"/><path id="_Trazado_4" data-name="&lt;Trazado&gt;" class="cls-11" d="M342.32,72.2L309.85,16.06H266.44L302.27,78,266.44,140h43.41l32.46-56.14A11.58,11.58,0,0,0,342.32,72.2Z" transform="translate(-266.44 -15.58)"/></g></g><path class="cls-8" d="M374.64,55.3l-9.09-20.73H365.4a57.56,57.56,0,0,1,.26,5.85V55.3h-2.88V31.92h4.69L376,51.21h0.15l8.56-19.29h4.66V55.3H386.2V40.24q0-2.59.26-5.63h-0.15l-9.16,20.7h-2.51Z" transform="translate(-266.44 -15.58)"/><path class="cls-8" d="M402.36,55.62a9.24,9.24,0,0,1-6.75-2.34,8.86,8.86,0,0,1-2.39-6.63,9.13,9.13,0,0,1,2.43-6.8q2.43-2.4,6.92-2.4a15.67,15.67,0,0,1,2.9.27,10.56,10.56,0,0,1,2.27.64l-0.93,2.26a16,16,0,0,0-2.2-.58,11.21,11.21,0,0,0-2.11-.23q-6.12,0-6.12,6.81a7.36,7.36,0,0,0,1.49,5,5.53,5.53,0,0,0,4.43,1.73,15.25,15.25,0,0,0,5.15-.94v2.35A12.35,12.35,0,0,1,402.36,55.62Z" transform="translate(-266.44 -15.58)"/><path class="cls-8" d="M431.72,55.3h-3.56L413.52,35.68h-0.15q0.29,3.46.29,6.33V55.3h-2.88V31.92h3.52l14.61,19.55h0.15q0-.43-0.17-2.78t-0.09-3.35V31.92h2.91V55.3Z" transform="translate(-266.44 -15.58)"/><path class="cls-8" d="M449.11,55.3l-0.6-2.49h-0.15a8.29,8.29,0,0,1-3,2.23,10.32,10.32,0,0,1-3.73.58,7.35,7.35,0,0,1-4.68-1.34,4.59,4.59,0,0,1-1.7-3.82q0-5.31,9.73-5.57l3.41-.1V43.71a4.07,4.07,0,0,0-1-3,4.55,4.55,0,0,0-3.25-1A14.8,14.8,0,0,0,438.44,41l-0.93-2a15.61,15.61,0,0,1,3.25-1.1,16.05,16.05,0,0,1,3.55-.4q3.59,0,5.32,1.39a5.39,5.39,0,0,1,1.73,4.46v12h-2.25Zm-6.87-1.87a6.74,6.74,0,0,0,4.46-1.36,4.69,4.69,0,0,0,1.62-3.81V46.68l-3,.11a12.41,12.41,0,0,0-5.23,1,2.88,2.88,0,0,0-1.6,2.71,2.57,2.57,0,0,0,1,2.19A4.56,4.56,0,0,0,442.23,53.43Z" transform="translate(-266.44 -15.58)"/><path class="cls-8" d="M458.79,55.3h-3V30.41h3V55.3Z" transform="translate(-266.44 -15.58)"/><path class="cls-8" d="M466.41,55.3h-3V30.41h3V55.3Z" transform="translate(-266.44 -15.58)"/><path class="cls-8" d="M467.8,37.77h3.26l4.4,10a34.62,34.62,0,0,1,1.8,4.94h0.15q0.24-.82,1-2.79t5-12.15h3.26l-8.63,20a9.91,9.91,0,0,1-3,4.2,7,7,0,0,1-4.21,1.24,14,14,0,0,1-2.75-.27V60.77a12.12,12.12,0,0,0,2.25.19,4.59,4.59,0,0,0,4.47-3.07l1.12-2.5Z" transform="translate(-266.44 -15.58)"/><path class="cls-8" d="M407.08,95.22q0,13.19-7.51,20.2t-21.68,7H362.78V69h16.76q13.08,0,20.31,6.9T407.08,95.22Zm-11.76.29q0-17.2-15.19-17.2h-6v34.77H379Q395.32,113.08,395.32,95.52Z" transform="translate(-266.44 -15.58)"/><path class="cls-8" d="M432,123.16q-9.86,0-15.41-5.44T411,102.31q0-10.26,5.13-15.87t14.19-5.61q8.66,0,13.48,4.93t4.82,13.62v5.41H422.33a10.72,10.72,0,0,0,2.81,7.41,9.89,9.89,0,0,0,7.38,2.67,30.61,30.61,0,0,0,7-.77,34.94,34.94,0,0,0,6.87-2.45v8.62a26.17,26.17,0,0,1-6.25,2.17A39.4,39.4,0,0,1,432,123.16Zm-1.57-34.41A7.07,7.07,0,0,0,424.89,91a10.39,10.39,0,0,0-2.3,6.37h15.63A9.29,9.29,0,0,0,436.07,91,7.3,7.3,0,0,0,430.44,88.76Z" transform="translate(-266.44 -15.58)"/><path class="cls-8" d="M463.7,122.43L448.14,81.6h11.65l7.89,23.27a41.47,41.47,0,0,1,1.64,8.36h0.22a36.35,36.35,0,0,1,1.64-8.36L479,81.6h11.65l-15.56,40.83H463.7Z" transform="translate(-266.44 -15.58)"/><path class="cls-8" d="M511.28,123.16q-9.86,0-15.41-5.44t-5.55-15.41q0-10.26,5.13-15.87t14.19-5.61q8.66,0,13.48,4.93t4.82,13.62v5.41H501.6a10.72,10.72,0,0,0,2.81,7.41,9.89,9.89,0,0,0,7.38,2.67,30.61,30.61,0,0,0,7-.77,34.94,34.94,0,0,0,6.87-2.45v8.62a26.17,26.17,0,0,1-6.25,2.17A39.4,39.4,0,0,1,511.28,123.16Zm-1.57-34.41A7.07,7.07,0,0,0,504.15,91a10.39,10.39,0,0,0-2.3,6.37h15.63A9.29,9.29,0,0,0,515.33,91,7.3,7.3,0,0,0,509.71,88.76Z" transform="translate(-266.44 -15.58)"/><path class="cls-8" d="M544.39,122.43H533.25V65.6h11.14v56.83Z" transform="translate(-266.44 -15.58)"/><path class="cls-8" d="M589.45,101.94q0,10-5.26,15.6t-14.65,5.62a20.49,20.49,0,0,1-10.37-2.57,17.14,17.14,0,0,1-6.9-7.4,24.85,24.85,0,0,1-2.41-11.25q0-10,5.22-15.56t14.68-5.55a20.61,20.61,0,0,1,10.37,2.56,17.07,17.07,0,0,1,6.9,7.34A24.62,24.62,0,0,1,589.45,101.94Zm-28.23,0q0,6.06,2,9.17t6.48,3.1q4.46,0,6.41-3.09t2-9.19q0-6.06-2-9.09t-6.46-3q-4.46,0-6.43,3T561.21,101.94Z" transform="translate(-266.44 -15.58)"/><path class="cls-8" d="M617.33,123.16A13.54,13.54,0,0,1,606,117.94h-0.58q0.58,5.11.58,5.92V140.4H594.91V81.6H604l1.57,5.3H606q3.91-6.06,11.58-6.06a13.25,13.25,0,0,1,11.32,5.59Q633,92,633,101.94a30.65,30.65,0,0,1-1.92,11.36,15.94,15.94,0,0,1-5.46,7.34A14,14,0,0,1,617.33,123.16ZM614,89.74q-4.13,0-6,2.54t-2,8.38v1.21q0,6.57,2,9.42t6.19,2.85q7.49,0,7.49-12.34,0-6-1.84-9A6.3,6.3,0,0,0,614,89.74Z" transform="translate(-266.44 -15.58)"/><path class="cls-8" d="M657,123.16q-9.86,0-15.41-5.44T636,102.31q0-10.26,5.13-15.87t14.19-5.61q8.66,0,13.48,4.93t4.82,13.62v5.41H647.31a10.72,10.72,0,0,0,2.81,7.41,9.89,9.89,0,0,0,7.38,2.67,30.61,30.61,0,0,0,7-.77,34.94,34.94,0,0,0,6.87-2.45v8.62a26.17,26.17,0,0,1-6.25,2.17A39.4,39.4,0,0,1,657,123.16Zm-1.57-34.41A7.07,7.07,0,0,0,649.86,91a10.39,10.39,0,0,0-2.3,6.37h15.63A9.29,9.29,0,0,0,661,91,7.3,7.3,0,0,0,655.41,88.76Z" transform="translate(-266.44 -15.58)"/><path class="cls-8" d="M701.75,80.83a17.92,17.92,0,0,1,3.76.33l-0.84,10.45a12.78,12.78,0,0,0-3.29-.37q-5.33,0-8.31,2.74a9.9,9.9,0,0,0-3,7.67v20.78H679V81.6h8.44L689,88.47h0.55a15.35,15.35,0,0,1,5.13-5.53A12.65,12.65,0,0,1,701.75,80.83Z" transform="translate(-266.44 -15.58)"/><path class="cls-8" d="M737.67,110.31q0,6.28-4.36,9.57t-13.06,3.29a41,41,0,0,1-7.6-.6,28.7,28.7,0,0,1-5.88-1.77v-9.2a38.76,38.76,0,0,0,7,2.45,28.33,28.33,0,0,0,6.85,1q6.06,0,6.06-3.51a2.93,2.93,0,0,0-.8-2.14,11.66,11.66,0,0,0-2.78-1.86q-2-1-5.26-2.43a33,33,0,0,1-6.92-3.65,10.27,10.27,0,0,1-3.21-3.85,12.71,12.71,0,0,1-1-5.35,9.7,9.7,0,0,1,4.22-8.42q4.22-3,12-3A34,34,0,0,1,737.23,84l-3.36,8q-3.07-1.32-5.73-2.16a18,18,0,0,0-5.44-.84q-4.93,0-4.93,2.67a3.13,3.13,0,0,0,1.59,2.59,43.18,43.18,0,0,0,7,3.25,32.35,32.35,0,0,1,7,3.62,10.69,10.69,0,0,1,3.29,3.87A11.9,11.9,0,0,1,737.67,110.31Z" transform="translate(-266.44 -15.58)"/></svg>