<svg id="Layer_4" data-name="Layer 4" xmlns="http://www.w3.org/2000/svg" xmlns:xlink="http://www.w3.org/1999/xlink" viewBox="0 0 630.45 83.48"><defs><style>.cls-1{fill:#026e00;}.cls-2{fill:none;}.cls-3{fill:#026200;}.cls-4{fill:#bf360c;}.cls-10,.cls-4,.cls-5,.cls-6,.cls-9{opacity:0.2;isolation:isolate;}.cls-5{fill:#263238;}.cls-6{fill:#fff;}.cls-7{fill:url(#radial-gradient);}.cls-8{fill:url(#radial-gradient-2);}.cls-9{fill:#1a237e;}.cls-10{fill:#3e2723;}.cls-11{fill:url(#radial-gradient-3);}</style><radialGradient id="radial-gradient" cx="120.07" cy="101.85" r="28.76" gradientTransform="matrix(1, 0, 0, -1, -81.55, 168.35)" gradientUnits="userSpaceOnUse"><stop offset="0" stop-color="#bf360c" stop-opacity="0.2"/><stop offset="1" stop-color="#bf360c" stop-opacity="0.02"/></radialGradient><radialGradient id="radial-gradient-2" cx="119.99" cy="101.66" r="28.99" gradientTransform="matrix(1, 0, 0, -1, -81.55, 168.35)" gradientUnits="userSpaceOnUse"><stop offset="0" stop-color="#263238" stop-opacity="0.2"/><stop offset="1" stop-color="#263238" stop-opacity="0.02"/></radialGradient><radialGradient id="radial-gradient-3" cx="80.9" cy="167.38" r="87.28" gradientTransform="matrix(1, 0, 0, -1, 0, 450)" gradientUnits="userSpaceOnUse"><stop offset="0" stop-color="#fff" stop-opacity="0.1"/><stop offset="1" stop-color="#fff" stop-opacity="0"/></radialGradient></defs><title>mcnally_logo1</title><path class="cls-1" d="M169.33,346.92l-11.17-36.4h-0.29q0.6,11.11.6,14.82v21.58h-8.79v-46.4h13.39l11,35.48h0.19l11.65-35.48h13.39v46.4h-9.17V325q0-1.55,0-3.59t0.43-10.79h-0.29l-12,36.34h-9Z" transform="translate(-81.55 -281.65)"/><path class="cls-1" d="M221.37,347.55q-16.57,0-16.57-18.19,0-9,4.51-13.82t12.92-4.78a24.62,24.62,0,0,1,11,2.41l-2.86,7.49q-2.29-.92-4.25-1.51a13.7,13.7,0,0,0-3.94-.59q-7.55,0-7.55,10.73,0,10.41,7.55,10.41a17.23,17.23,0,0,0,5.17-.75,18.65,18.65,0,0,0,4.76-2.33v8.28a15.61,15.61,0,0,1-4.75,2.06A26.68,26.68,0,0,1,221.37,347.55Z" transform="translate(-81.55 -281.65)"/><path class="cls-1" d="M279.05,346.92h-12.5l-20.19-35.1h-0.29q0.6,9.3.6,13.27v21.84h-8.79v-46.4H250.3l20.15,34.75h0.22q-0.48-9-.48-12.79v-22h8.85v46.4Z" transform="translate(-81.55 -281.65)"/><path class="cls-1" d="M309.26,346.92l-1.87-4.82h-0.25a14.29,14.29,0,0,1-5,4.27,16.25,16.25,0,0,1-6.74,1.19,10.9,10.9,0,0,1-8-2.92q-2.94-2.92-2.94-8.32,0-5.65,4-8.33t11.92-3l6.16-.19v-1.55q0-5.4-5.52-5.4a25.16,25.16,0,0,0-10,2.57l-3.21-6.54a28.85,28.85,0,0,1,13.58-3.21q7.14,0,10.95,3.11t3.81,9.46v23.64h-6.76Zm-2.86-16.44-3.75.13q-4.22.13-6.28,1.52a4.79,4.79,0,0,0-2.06,4.25q0,4.09,4.7,4.09a7.44,7.44,0,0,0,5.38-1.94,6.8,6.8,0,0,0,2-5.14v-2.92Z" transform="translate(-81.55 -281.65)"/><path class="cls-1" d="M332.41,346.92h-9.68V297.53h9.68v49.38Z" transform="translate(-81.55 -281.65)"/><path class="cls-1" d="M349,346.92h-9.68V297.53H349v49.38Z" transform="translate(-81.55 -281.65)"/><path class="cls-1" d="M350.83,311.43h10.6l6.7,20a27.72,27.72,0,0,1,1.17,6.16h0.19a27.18,27.18,0,0,1,1.36-6.16l6.57-20H387.8l-15,40a17.33,17.33,0,0,1-5.89,8.32,14.86,14.86,0,0,1-8.93,2.76A22.48,22.48,0,0,1,353,362v-7.68a16.58,16.58,0,0,0,3.81.41,6.88,6.88,0,0,0,4.49-1.57,10.19,10.19,0,0,0,3-4.74l0.57-1.75Z" transform="translate(-81.55 -281.65)"/><path class="cls-1" d="M445.23,323.27q0,11.49-6.24,17.57T421,346.92H408.19v-46.4h14.22q10.82,0,16.82,6T445.23,323.27Zm-5.71.19q0-9.08-4.55-13.68t-13.54-4.6h-7.84v37.07h6.57q9.65,0,14.5-4.74T439.51,323.46Z" transform="translate(-81.55 -281.65)"/><path class="cls-1" d="M466.23,347.55q-7.71,0-12.17-4.7t-4.46-13q0-8.41,4.14-13.36a13.76,13.76,0,0,1,11.12-5,13.12,13.12,0,0,1,10.35,4.3q3.81,4.3,3.81,11.35v3.33h-24q0.16,6.13,3.09,9.3t8.27,3.17a28,28,0,0,0,11.11-2.35v4.7a27.88,27.88,0,0,1-5.28,1.73A29.73,29.73,0,0,1,466.23,347.55Zm-1.43-31.64a8.6,8.6,0,0,0-6.68,2.73,12.58,12.58,0,0,0-2.94,7.55h18.19q0-5-2.22-7.63A7.82,7.82,0,0,0,464.8,315.91Z" transform="translate(-81.55 -281.65)"/><path class="cls-1" d="M492.37,346.92l-13.2-34.79h5.65l7.49,20.63a97.82,97.82,0,0,1,3,9.39h0.25a70.82,70.82,0,0,1,2.21-7q1.86-5.28,8.33-23.06h5.65l-13.2,34.79h-6.16Z" transform="translate(-81.55 -281.65)"/><path class="cls-1" d="M528.76,347.55q-7.71,0-12.17-4.7t-4.46-13q0-8.41,4.14-13.36a13.76,13.76,0,0,1,11.12-5,13.12,13.12,0,0,1,10.35,4.3q3.81,4.3,3.81,11.35v3.33h-24q0.16,6.13,3.09,9.3t8.27,3.17a28,28,0,0,0,11.11-2.35v4.7a27.88,27.88,0,0,1-5.28,1.73A29.73,29.73,0,0,1,528.76,347.55Zm-1.43-31.64a8.6,8.6,0,0,0-6.68,2.73,12.58,12.58,0,0,0-2.94,7.55H535.9q0-5-2.22-7.63A7.82,7.82,0,0,0,527.33,315.91Z" transform="translate(-81.55 -281.65)"/><path class="cls-1" d="M552.55,346.92h-5.27V297.53h5.27v49.38Z" transform="translate(-81.55 -281.65)"/><path class="cls-1" d="M590.49,329.49q0,8.5-4.28,13.28t-11.84,4.78a15.69,15.69,0,0,1-8.28-2.19,14.45,14.45,0,0,1-5.59-6.29,21.89,21.89,0,0,1-2-9.58q0-8.51,4.25-13.25t11.81-4.75q7.3,0,11.6,4.86T590.49,329.49Zm-26.5,0q0,6.67,2.67,10.16t7.84,3.49q5.17,0,7.85-3.47T585,329.49q0-6.63-2.68-10.08T574.43,316q-5.17,0-7.81,3.4T564,329.49Z" transform="translate(-81.55 -281.65)"/><path class="cls-1" d="M612.67,347.55a15.06,15.06,0,0,1-6.21-1.25,11.67,11.67,0,0,1-4.71-3.86h-0.38a46.65,46.65,0,0,1,.38,5.78v14.31h-5.27v-50.4h4.28l0.73,4.76h0.25a12.23,12.23,0,0,1,4.73-4.13,14.37,14.37,0,0,1,6.19-1.27q6.92,0,10.68,4.73t3.76,13.27q0,8.57-3.82,13.31T612.67,347.55ZM611.9,316q-5.33,0-7.71,3t-2.44,9.39v1.17q0,7.33,2.44,10.49t7.84,3.16a8.15,8.15,0,0,0,7.06-3.65q2.55-3.65,2.55-10.06t-2.55-10A8.41,8.41,0,0,0,611.9,316Z" transform="translate(-81.55 -281.65)"/><path class="cls-1" d="M647.76,347.55q-7.71,0-12.17-4.7t-4.46-13q0-8.41,4.14-13.36a13.76,13.76,0,0,1,11.12-5,13.12,13.12,0,0,1,10.35,4.3q3.81,4.3,3.81,11.35v3.33h-24q0.16,6.13,3.09,9.3t8.27,3.17a28,28,0,0,0,11.11-2.35v4.7a27.88,27.88,0,0,1-5.29,1.73A29.73,29.73,0,0,1,647.76,347.55Zm-1.43-31.64a8.6,8.6,0,0,0-6.68,2.73,12.58,12.58,0,0,0-2.94,7.55H654.9q0-5-2.22-7.63A7.82,7.82,0,0,0,646.33,315.91Z" transform="translate(-81.55 -281.65)"/><path class="cls-1" d="M682.15,311.5a20.63,20.63,0,0,1,4.16.38l-0.73,4.89a18,18,0,0,0-3.81-.48,9.27,9.27,0,0,0-7.22,3.43,12.5,12.5,0,0,0-3,8.54v18.66h-5.27V312.13h4.35l0.6,6.44h0.25a15.28,15.28,0,0,1,4.67-5.24A10.5,10.5,0,0,1,682.15,311.5Z" transform="translate(-81.55 -281.65)"/><path class="cls-1" d="M712,337.43a8.71,8.71,0,0,1-3.62,7.49q-3.62,2.64-10.16,2.63-6.92,0-10.79-2.19v-4.89a26.07,26.07,0,0,0,5.38,2,22.43,22.43,0,0,0,5.54.73,12.56,12.56,0,0,0,6.35-1.32,4.53,4.53,0,0,0,.46-7.49,27.74,27.74,0,0,0-6.87-3.41,37.2,37.2,0,0,1-6.9-3.16,9.41,9.41,0,0,1-3-3.06,8,8,0,0,1-1-4.09A7.8,7.8,0,0,1,690.8,314q3.46-2.46,9.49-2.46a27.77,27.77,0,0,1,11,2.29l-1.87,4.29a25.19,25.19,0,0,0-9.49-2.16,10.92,10.92,0,0,0-5.65,1.17,3.63,3.63,0,0,0-1.9,3.24,3.94,3.94,0,0,0,.71,2.38,7,7,0,0,0,2.3,1.87,51.28,51.28,0,0,0,6.09,2.57q6.19,2.25,8.36,4.54A8,8,0,0,1,712,337.43Z" transform="translate(-81.55 -281.65)"/><g id="_Grupo_" data-name="&lt;Grupo&gt;"><g id="_Grupo_2" data-name="&lt;Grupo&gt;"><path class="cls-2" d="M132.49,319.33L110.7,281.65H81.56l24.05,41.58L81.56,364.8H110.7l21.79-37.68A7.78,7.78,0,0,0,132.49,319.33Z" transform="translate(-81.55 -281.65)"/><path class="cls-2" d="M132.49,319.33L110.7,281.65H81.56l24.05,41.58L81.56,364.8H110.7l21.79-37.68A7.78,7.78,0,0,0,132.49,319.33Z" transform="translate(-81.55 -281.65)"/><polygon class="cls-3" points="38.43 66.44 31.53 54.49 24.06 41.58 0.01 83.16 14.95 83.16 29.14 83.16 38.62 66.77 38.43 66.44"/><path class="cls-2" d="M132.49,319.33L110.7,281.65H81.56l24.05,41.58L81.56,364.8H110.7l21.79-37.68A7.78,7.78,0,0,0,132.49,319.33Z" transform="translate(-81.55 -281.65)"/><polygon class="cls-4" points="29.14 82.51 15.33 82.51 14.95 83.16 29.14 83.16 38.62 66.77 38.43 66.44 29.14 82.51"/><path class="cls-2" d="M132.49,319.33L110.7,281.65H81.56l24.05,41.58L81.56,364.8H110.7l21.79-37.68A7.78,7.78,0,0,0,132.49,319.33Z" transform="translate(-81.55 -281.65)"/><polygon class="cls-5" points="0.38 82.51 0.01 83.16 14.95 83.16 15.33 82.51 0.38 82.51"/><path class="cls-2" d="M132.49,319.33L110.7,281.65H81.56l24.05,41.58L81.56,364.8H110.7l21.79-37.68A7.78,7.78,0,0,0,132.49,319.33Z" transform="translate(-81.55 -281.65)"/><polygon class="cls-6" points="0.01 83.16 0.38 83.16 24.25 41.9 24.06 41.58 0.01 83.16"/><path class="cls-2" d="M132.49,319.33L110.7,281.65H81.56l24.05,41.58L81.56,364.8H110.7l21.79-37.68A7.78,7.78,0,0,0,132.49,319.33Z" transform="translate(-81.55 -281.65)"/><polygon id="_Trazado_" data-name="&lt;Trazado&gt;" class="cls-7" points="38.62 66.77 38.62 66.77 31.53 54.49 29.79 57.5 38.62 66.77"/><path class="cls-2" d="M132.49,319.33L110.7,281.65H81.56l24.05,41.58L81.56,364.8H110.7l21.79-37.68A7.78,7.78,0,0,0,132.49,319.33Z" transform="translate(-81.55 -281.65)"/><polygon id="_Trazado_2" data-name="&lt;Trazado&gt;" class="cls-8" points="29.79 57.5 31.53 54.49 24.06 41.58 20.49 47.75 29.79 57.5"/><path class="cls-2" d="M132.49,319.33L110.7,281.65H81.56l24.05,41.58L81.56,364.8H110.7l21.79-37.68A7.78,7.78,0,0,0,132.49,319.33Z" transform="translate(-81.55 -281.65)"/><path class="cls-2" d="M132.49,319.33L110.7,281.65H81.56l24.05,41.58L81.56,364.8H110.7l21.79-37.68A7.78,7.78,0,0,0,132.49,319.33Z" transform="translate(-81.55 -281.65)"/><path class="cls-1" d="M132.49,319.33L110.7,281.65H81.56l38.62,66.76,7.46-12.91h0l4.84-8.37A7.78,7.78,0,0,0,132.49,319.33Z" transform="translate(-81.55 -281.65)"/><path class="cls-2" d="M132.49,319.33L110.7,281.65H81.56l24.05,41.58L81.56,364.8H110.7l21.79-37.68A7.78,7.78,0,0,0,132.49,319.33Z" transform="translate(-81.55 -281.65)"/><polygon class="cls-9" points="46.09 53.84 45.91 53.52 38.62 66.11 0.38 0 0.01 0 38.62 66.77 46.09 53.86 46.09 53.84"/><path class="cls-2" d="M132.49,319.33L110.7,281.65H81.56l24.05,41.58L81.56,364.8H110.7l21.79-37.68A7.78,7.78,0,0,0,132.49,319.33Z" transform="translate(-81.55 -281.65)"/><path class="cls-6" d="M110.7,282.3L132.49,320a7.76,7.76,0,0,1,1,3.57,7.78,7.78,0,0,0-1-4.22L110.7,281.65H81.56l0.38,0.65H110.7Z" transform="translate(-81.55 -281.65)"/><path class="cls-2" d="M132.49,319.33L110.7,281.65H81.56l24.05,41.58L81.56,364.8H110.7l21.79-37.68A7.78,7.78,0,0,0,132.49,319.33Z" transform="translate(-81.55 -281.65)"/><path id="_Trazado_3" data-name="&lt;Trazado&gt;" class="cls-10" d="M127.65,335.49l4.84-8.37a7.78,7.78,0,0,0,1-4.22,7.76,7.76,0,0,1-1,3.57l-5,8.7Z" transform="translate(-81.55 -281.65)"/><path class="cls-2" d="M132.49,319.33L110.7,281.65H81.56l24.05,41.58L81.56,364.8H110.7l21.79-37.68A7.78,7.78,0,0,0,132.49,319.33Z" transform="translate(-81.55 -281.65)"/><path id="_Trazado_4" data-name="&lt;Trazado&gt;" class="cls-11" d="M132.48,319.65L110.69,282H81.55l24.05,41.58L81.55,365.13h29.14l21.79-37.68A7.78,7.78,0,0,0,132.48,319.65Z" transform="translate(-81.55 -281.65)"/></g></g></svg>